<svg xmlns="http://www.w3.org/2000/svg" xmlns:xlink="http://www.w3.org/1999/xlink" width="940" zoomAndPan="magnify" viewBox="0 0 705 591.000005" height="788" preserveAspectRatio="xMidYMid meet" version="1.0"><defs><g/><clipPath id="58b6e4e1ed"><path d="M 0.59375 0 L 704.402344 0 L 704.402344 590 L 0.59375 590 Z M 0.59375 0 " clip-rule="nonzero"/></clipPath><clipPath id="d6639ea16e"><rect x="0" width="519" y="0" height="132"/></clipPath><clipPath id="c88530fe5c"><path d="M 557 238.0625 L 565 238.0625 L 565 245 L 557 245 Z M 557 238.0625 " clip-rule="nonzero"/></clipPath><clipPath id="b55d105209"><path d="M 564 239 L 568.847656 239 L 568.847656 248 L 564 248 Z M 564 239 " clip-rule="nonzero"/></clipPath><clipPath id="e5436f6f73"><path d="M 550.128906 247 L 568.847656 247 L 568.847656 267 L 550.128906 267 Z M 550.128906 247 " clip-rule="nonzero"/></clipPath><clipPath id="699c98f418"><path d="M 550.128906 249 L 558 249 L 558 257 L 550.128906 257 Z M 550.128906 249 " clip-rule="nonzero"/></clipPath><clipPath id="4c07bbd3d1"><path d="M 550.128906 254 L 553 254 L 553 257 L 550.128906 257 Z M 550.128906 254 " clip-rule="nonzero"/></clipPath><clipPath id="9938f70f2f"><path d="M 550.128906 259 L 553 259 L 553 262 L 550.128906 262 Z M 550.128906 259 " clip-rule="nonzero"/></clipPath><clipPath id="2670f6ea22"><path d="M 564 254 L 568.847656 254 L 568.847656 262 L 564 262 Z M 564 254 " clip-rule="nonzero"/></clipPath><clipPath id="768ca9c420"><path d="M 564 261 L 568.847656 261 L 568.847656 269 L 564 269 Z M 564 261 " clip-rule="nonzero"/></clipPath><clipPath id="7642f0e169"><path d="M 550.128906 268 L 568.847656 268 L 568.847656 288 L 550.128906 288 Z M 550.128906 268 " clip-rule="nonzero"/></clipPath><clipPath id="d2391a9a21"><path d="M 550.128906 270 L 558 270 L 558 279 L 550.128906 279 Z M 550.128906 270 " clip-rule="nonzero"/></clipPath><clipPath id="0e475c465e"><path d="M 550.128906 275 L 553 275 L 553 279 L 550.128906 279 Z M 550.128906 275 " clip-rule="nonzero"/></clipPath><clipPath id="7b7316084d"><path d="M 550.128906 280 L 553 280 L 553 283 L 550.128906 283 Z M 550.128906 280 " clip-rule="nonzero"/></clipPath><clipPath id="d9d3efbe4b"><path d="M 564 275 L 568.847656 275 L 568.847656 283 L 564 283 Z M 564 275 " clip-rule="nonzero"/></clipPath><clipPath id="6d37fc6ece"><path d="M 564 282 L 568.847656 282 L 568.847656 290 L 564 290 Z M 564 282 " clip-rule="nonzero"/></clipPath><clipPath id="dbaa61ce11"><path d="M 550.128906 290 L 568.847656 290 L 568.847656 310 L 550.128906 310 Z M 550.128906 290 " clip-rule="nonzero"/></clipPath><clipPath id="c5f735b208"><path d="M 550.128906 292 L 558 292 L 558 300 L 550.128906 300 Z M 550.128906 292 " clip-rule="nonzero"/></clipPath><clipPath id="b47780c608"><path d="M 550.128906 297 L 553 297 L 553 300 L 550.128906 300 Z M 550.128906 297 " clip-rule="nonzero"/></clipPath><clipPath id="83ea859452"><path d="M 550.128906 301 L 553 301 L 553 305 L 550.128906 305 Z M 550.128906 301 " clip-rule="nonzero"/></clipPath><clipPath id="88869c81e0"><path d="M 564 297 L 568.847656 297 L 568.847656 305 L 564 305 Z M 564 297 " clip-rule="nonzero"/></clipPath><clipPath id="aa901a55a3"><path d="M 564 304 L 568.847656 304 L 568.847656 312 L 564 312 Z M 564 304 " clip-rule="nonzero"/></clipPath><clipPath id="14d819b2df"><path d="M 557 311 L 568.847656 311 L 568.847656 323.417969 L 557 323.417969 Z M 557 311 " clip-rule="nonzero"/></clipPath><clipPath id="640a1d9f58"><path d="M 550.128906 238.0625 L 558 238.0625 L 558 245 L 550.128906 245 Z M 550.128906 238.0625 " clip-rule="nonzero"/></clipPath><clipPath id="7f64ebf8cb"><path d="M 550.128906 313 L 558 313 L 558 321 L 550.128906 321 Z M 550.128906 313 " clip-rule="nonzero"/></clipPath><clipPath id="03ae5bb9ca"><path d="M 550.128906 318 L 553 318 L 553 321 L 550.128906 321 Z M 550.128906 318 " clip-rule="nonzero"/></clipPath><clipPath id="7e311c246f"><path d="M 550.128906 238.0625 L 553 238.0625 L 553 240 L 550.128906 240 Z M 550.128906 238.0625 " clip-rule="nonzero"/></clipPath><clipPath id="bfc79159a0"><path d="M 564 318 L 568.847656 318 L 568.847656 323.417969 L 564 323.417969 Z M 564 318 " clip-rule="nonzero"/></clipPath></defs><g clip-path="url(#58b6e4e1ed)"><path fill="#ffffff" d="M 0.59375 0 L 704.40625 0 L 704.40625 590 L 0.59375 590 Z M 0.59375 0 " fill-opacity="1" fill-rule="nonzero"/><path fill="#000000" d="M 0.59375 0 L 704.40625 0 L 704.40625 590 L 0.59375 590 Z M 0.59375 0 " fill-opacity="1" fill-rule="nonzero"/></g><g transform="matrix(1, 0, 0, 1, 93, 229)"><g clip-path="url(#d6639ea16e)"><g fill="#ffffff" fill-opacity="1"><g transform="translate(0.769643, 94.635983)"><g><path d="M 52.203125 -17.78125 C 55.203125 -17.78125 58.113281 -18.234375 60.9375 -19.140625 C 63.757812 -20.046875 65.832031 -20.921875 67.15625 -21.765625 L 69.140625 -23.125 L 77.515625 -6.375 C 77.234375 -6.164062 76.847656 -5.882812 76.359375 -5.53125 C 75.867188 -5.1875 74.734375 -4.546875 72.953125 -3.609375 C 71.179688 -2.671875 69.285156 -1.851562 67.265625 -1.15625 C 65.242188 -0.457031 62.59375 0.164062 59.3125 0.71875 C 56.03125 1.28125 52.648438 1.5625 49.171875 1.5625 C 41.148438 1.5625 33.546875 -0.40625 26.359375 -4.34375 C 19.179688 -8.28125 13.394531 -13.703125 9 -20.609375 C 4.601562 -27.515625 2.40625 -34.976562 2.40625 -43 C 2.40625 -49.0625 3.691406 -54.878906 6.265625 -60.453125 C 8.847656 -66.035156 12.285156 -70.816406 16.578125 -74.796875 C 20.867188 -78.773438 25.875 -81.945312 31.59375 -84.3125 C 37.3125 -86.6875 43.171875 -87.875 49.171875 -87.875 C 54.742188 -87.875 59.882812 -87.207031 64.59375 -85.875 C 69.300781 -84.550781 72.632812 -83.226562 74.59375 -81.90625 L 77.515625 -79.921875 L 69.140625 -63.1875 C 68.660156 -63.601562 67.929688 -64.109375 66.953125 -64.703125 C 65.972656 -65.296875 64.019531 -66.078125 61.09375 -67.046875 C 58.164062 -68.023438 55.203125 -68.515625 52.203125 -68.515625 C 47.460938 -68.515625 43.207031 -67.75 39.4375 -66.21875 C 35.664062 -64.6875 32.679688 -62.664062 30.484375 -60.15625 C 28.296875 -57.644531 26.625 -54.941406 25.46875 -52.046875 C 24.320312 -49.148438 23.75 -46.203125 23.75 -43.203125 C 23.75 -36.648438 26.207031 -30.773438 31.125 -25.578125 C 36.039062 -20.378906 43.066406 -17.78125 52.203125 -17.78125 Z M 52.203125 -17.78125 "/></g></g></g><g fill="#ffffff" fill-opacity="1"><g transform="translate(79.531798, 94.635983)"><g><path d="M 46.96875 -53.671875 L 68.3125 -53.671875 L 26.15625 27.203125 L 4.8125 27.203125 L 23.328125 -8.375 L -2.09375 -53.671875 L 19.25 -53.671875 L 34.203125 -26.15625 Z M 46.96875 -53.671875 "/></g></g></g><g fill="#ffffff" fill-opacity="1"><g transform="translate(145.742217, 94.635983)"><g><path d="M 61.515625 -46.96875 C 66.535156 -41.457031 69.046875 -34.726562 69.046875 -26.78125 C 69.046875 -18.832031 66.535156 -12.117188 61.515625 -6.640625 C 56.492188 -1.171875 50.109375 1.5625 42.359375 1.5625 C 35.253906 1.5625 29.398438 -0.976562 24.796875 -6.0625 L 24.578125 -6.0625 L 24.578125 0 L 6.28125 0 L 6.28125 -89.96875 L 24.796875 -89.96875 L 24.796875 -48.53125 C 29.398438 -53 35.253906 -55.234375 42.359375 -55.234375 C 50.109375 -55.234375 56.492188 -52.476562 61.515625 -46.96875 Z M 45.921875 -17.734375 C 48.222656 -20.066406 49.375 -23.082031 49.375 -26.78125 C 49.375 -30.476562 48.171875 -33.507812 45.765625 -35.875 C 43.359375 -38.25 40.378906 -39.4375 36.828125 -39.4375 C 33.335938 -39.4375 30.390625 -38.25 27.984375 -35.875 C 25.578125 -33.507812 24.375 -30.476562 24.375 -26.78125 C 24.375 -23.15625 25.539062 -20.15625 27.875 -17.78125 C 30.21875 -15.414062 33.203125 -14.234375 36.828125 -14.234375 C 40.585938 -14.234375 43.617188 -15.398438 45.921875 -17.734375 Z M 45.921875 -17.734375 "/></g></g></g><g fill="#ffffff" fill-opacity="1"><g transform="translate(217.182534, 94.635983)"><g><path d="M 60.5625 -24.265625 L 21.65625 -24.265625 C 21.65625 -20.503906 22.875 -17.71875 25.3125 -15.90625 C 27.757812 -14.09375 30.410156 -13.1875 33.265625 -13.1875 C 36.265625 -13.1875 38.632812 -13.585938 40.375 -14.390625 C 42.125 -15.191406 44.113281 -16.773438 46.34375 -19.140625 L 59.734375 -12.453125 C 54.148438 -3.109375 44.875 1.5625 31.90625 1.5625 C 23.8125 1.5625 16.867188 -1.207031 11.078125 -6.75 C 5.296875 -12.289062 2.40625 -18.96875 2.40625 -26.78125 C 2.40625 -34.59375 5.296875 -41.285156 11.078125 -46.859375 C 16.867188 -52.441406 23.8125 -55.234375 31.90625 -55.234375 C 40.414062 -55.234375 47.335938 -52.773438 52.671875 -47.859375 C 58.003906 -42.941406 60.671875 -35.914062 60.671875 -26.78125 C 60.671875 -25.519531 60.632812 -24.679688 60.5625 -24.265625 Z M 22.171875 -34.515625 L 42.578125 -34.515625 C 42.160156 -37.304688 41.0625 -39.453125 39.28125 -40.953125 C 37.5 -42.453125 35.210938 -43.203125 32.421875 -43.203125 C 29.359375 -43.203125 26.921875 -42.398438 25.109375 -40.796875 C 23.296875 -39.191406 22.316406 -37.097656 22.171875 -34.515625 Z M 22.171875 -34.515625 "/></g></g></g><g fill="#ffffff" fill-opacity="1"><g transform="translate(280.255014, 94.635983)"><g><path d="M 6.28125 0 L 6.28125 -53.671875 L 24.796875 -53.671875 L 24.796875 -45.921875 L 25 -45.921875 C 25.132812 -46.203125 25.359375 -46.550781 25.671875 -46.96875 C 25.992188 -47.382812 26.675781 -48.113281 27.71875 -49.15625 C 28.769531 -50.207031 29.882812 -51.148438 31.0625 -51.984375 C 32.25 -52.828125 33.785156 -53.578125 35.671875 -54.234375 C 37.554688 -54.898438 39.472656 -55.234375 41.421875 -55.234375 C 43.441406 -55.234375 45.425781 -54.953125 47.375 -54.390625 C 49.332031 -53.835938 50.765625 -53.28125 51.671875 -52.71875 L 53.140625 -51.890625 L 45.40625 -36.1875 C 43.101562 -38.144531 39.894531 -39.125 35.78125 -39.125 C 33.539062 -39.125 31.617188 -38.632812 30.015625 -37.65625 C 28.410156 -36.675781 27.273438 -35.488281 26.609375 -34.09375 C 25.953125 -32.707031 25.484375 -31.523438 25.203125 -30.546875 C 24.929688 -29.566406 24.796875 -28.800781 24.796875 -28.25 L 24.796875 0 Z M 6.28125 0 "/></g></g></g><g fill="#ffffff" fill-opacity="1"><g transform="translate(332.344713, 94.635983)"><g><path d="M 6.28125 -86.296875 L 37.765625 -86.296875 C 46.546875 -86.296875 53.65625 -84.03125 59.09375 -79.5 C 64.539062 -74.96875 67.265625 -68.378906 67.265625 -59.734375 C 67.265625 -51.085938 64.507812 -44.304688 59 -39.390625 C 53.488281 -34.472656 46.410156 -32.015625 37.765625 -32.015625 L 25.9375 -32.015625 L 25.9375 0 L 6.28125 0 Z M 25.9375 -47.703125 L 31.484375 -47.703125 C 35.878906 -47.703125 39.488281 -48.585938 42.3125 -50.359375 C 45.132812 -52.140625 46.546875 -55.054688 46.546875 -59.109375 C 46.546875 -63.222656 45.132812 -66.164062 42.3125 -67.9375 C 39.488281 -69.71875 35.878906 -70.609375 31.484375 -70.609375 L 25.9375 -70.609375 Z M 25.9375 -47.703125 "/></g></g></g><g fill="#ffffff" fill-opacity="1"><g transform="translate(402.00687, 94.635983)"><g><path d="M 25.9375 -34.625 L 25.9375 0 L 6.28125 0 L 6.28125 -86.296875 L 25.9375 -86.296875 L 25.9375 -51.890625 L 53.765625 -51.890625 L 53.765625 -86.296875 L 73.4375 -86.296875 L 73.4375 0 L 53.765625 0 L 53.765625 -34.625 Z M 25.9375 -34.625 "/></g></g></g><g fill="#ffffff" fill-opacity="1"><g transform="translate(481.710393, 94.635983)"><g><path d="M 18.203125 -22.390625 C 21.546875 -22.390625 24.382812 -21.21875 26.71875 -18.875 C 29.0625 -16.539062 30.234375 -13.703125 30.234375 -10.359375 C 30.234375 -7.078125 29.0625 -4.269531 26.71875 -1.9375 C 24.382812 0.394531 21.546875 1.5625 18.203125 1.5625 C 14.921875 1.5625 12.113281 0.394531 9.78125 -1.9375 C 7.445312 -4.269531 6.28125 -7.078125 6.28125 -10.359375 C 6.28125 -13.703125 7.445312 -16.539062 9.78125 -18.875 C 12.113281 -21.21875 14.921875 -22.390625 18.203125 -22.390625 Z M 18.203125 -22.390625 "/></g></g></g></g></g><g clip-path="url(#c88530fe5c)"><path fill="#ca2027" d="M 557.464844 242.320312 L 557.464844 244.703125 L 559.847656 244.703125 L 559.847656 242.320312 L 562.230469 242.320312 L 562.230469 239.9375 L 564.617188 239.9375 L 564.617188 237.554688 L 562.230469 237.554688 L 562.230469 239.9375 L 559.847656 239.9375 L 559.847656 242.320312 Z M 557.464844 242.320312 " fill-opacity="1" fill-rule="nonzero"/></g><g clip-path="url(#b55d105209)"><path fill="#ca2027" d="M 564.617188 239.9375 L 567 239.9375 L 567 242.320312 L 569.382812 242.320312 L 569.382812 244.703125 L 571.769531 244.703125 L 571.769531 247.089844 L 569.382812 247.089844 L 569.382812 244.703125 L 567 244.703125 L 567 242.320312 L 564.617188 242.320312 Z M 564.617188 239.9375 " fill-opacity="1" fill-rule="nonzero"/></g><g clip-path="url(#e5436f6f73)"><path fill="#ca2027" d="M 569.382812 247.089844 L 569.382812 249.472656 L 567 249.472656 L 567 251.855469 L 564.617188 251.855469 L 564.617188 254.242188 L 562.230469 254.242188 L 562.230469 256.625 L 559.847656 256.625 L 559.847656 259.007812 L 557.464844 259.007812 L 557.464844 261.394531 L 555.078125 261.394531 L 555.078125 263.777344 L 552.695312 263.777344 L 552.695312 266.160156 L 550.3125 266.160156 L 550.3125 263.777344 L 552.695312 263.777344 L 552.695312 261.394531 L 555.078125 261.394531 L 555.078125 259.007812 L 557.464844 259.007812 L 557.464844 256.625 L 559.847656 256.625 L 559.847656 254.242188 L 562.230469 254.242188 L 562.230469 251.855469 L 564.617188 251.855469 L 564.617188 249.472656 L 567 249.472656 L 567 247.089844 Z M 569.382812 247.089844 " fill-opacity="1" fill-rule="nonzero"/></g><g clip-path="url(#699c98f418)"><path fill="#ca2027" d="M 557.464844 256.625 L 555.078125 256.625 L 555.078125 254.242188 L 552.695312 254.242188 L 552.695312 251.855469 L 550.3125 251.855469 L 550.3125 249.472656 L 552.695312 249.472656 L 552.695312 251.855469 L 555.078125 251.855469 L 555.078125 254.242188 L 557.464844 254.242188 Z M 557.464844 256.625 " fill-opacity="1" fill-rule="nonzero"/></g><g clip-path="url(#4c07bbd3d1)"><path fill="#ca2027" d="M 552.695312 254.242188 L 550.3125 254.242188 L 550.3125 256.625 L 552.695312 256.625 Z M 552.695312 254.242188 " fill-opacity="1" fill-rule="nonzero"/></g><g clip-path="url(#9938f70f2f)"><path fill="#ca2027" d="M 552.695312 259.007812 L 552.695312 261.394531 L 550.3125 261.394531 L 550.3125 259.007812 Z M 552.695312 259.007812 " fill-opacity="1" fill-rule="nonzero"/></g><g clip-path="url(#2670f6ea22)"><path fill="#ca2027" d="M 564.617188 254.242188 L 567 254.242188 L 567 256.625 L 569.382812 256.625 L 569.382812 259.007812 L 571.769531 259.007812 L 571.769531 261.394531 L 569.382812 261.394531 L 569.382812 259.007812 L 567 259.007812 L 567 256.625 L 564.617188 256.625 Z M 564.617188 254.242188 " fill-opacity="1" fill-rule="nonzero"/></g><path fill="#ca2027" d="M 552.695312 266.160156 L 555.078125 266.160156 L 555.078125 268.542969 L 557.464844 268.542969 L 557.464844 270.929688 L 559.847656 270.929688 L 559.847656 273.3125 L 557.464844 273.3125 L 557.464844 270.929688 L 555.078125 270.929688 L 555.078125 268.542969 L 552.695312 268.542969 Z M 552.695312 266.160156 " fill-opacity="1" fill-rule="nonzero"/><path fill="#ca2027" d="M 559.847656 270.929688 L 562.230469 270.929688 L 562.230469 268.542969 L 564.617188 268.542969 L 564.617188 266.160156 L 562.230469 266.160156 L 562.230469 268.542969 L 559.847656 268.542969 Z M 559.847656 270.929688 " fill-opacity="1" fill-rule="nonzero"/><path fill="#f3aa2c" d="M 557.464844 263.777344 L 557.464844 266.160156 L 559.847656 266.160156 L 559.847656 263.777344 L 562.230469 263.777344 L 562.230469 261.394531 L 564.617188 261.394531 L 564.617188 259.007812 L 562.230469 259.007812 L 562.230469 261.394531 L 559.847656 261.394531 L 559.847656 263.777344 Z M 557.464844 263.777344 " fill-opacity="1" fill-rule="nonzero"/><g clip-path="url(#768ca9c420)"><path fill="#f3aa2c" d="M 564.617188 261.394531 L 567 261.394531 L 567 263.777344 L 569.382812 263.777344 L 569.382812 266.160156 L 571.769531 266.160156 L 571.769531 268.542969 L 569.382812 268.542969 L 569.382812 266.160156 L 567 266.160156 L 567 263.777344 L 564.617188 263.777344 Z M 564.617188 261.394531 " fill-opacity="1" fill-rule="nonzero"/></g><g clip-path="url(#7642f0e169)"><path fill="#f3aa2c" d="M 569.382812 268.542969 L 569.382812 270.929688 L 567 270.929688 L 567 273.3125 L 564.617188 273.3125 L 564.617188 275.695312 L 562.230469 275.695312 L 562.230469 278.082031 L 559.847656 278.082031 L 559.847656 280.464844 L 557.464844 280.464844 L 557.464844 282.847656 L 555.078125 282.847656 L 555.078125 285.234375 L 552.695312 285.234375 L 552.695312 287.617188 L 550.3125 287.617188 L 550.3125 285.234375 L 552.695312 285.234375 L 552.695312 282.847656 L 555.078125 282.847656 L 555.078125 280.464844 L 557.464844 280.464844 L 557.464844 278.082031 L 559.847656 278.082031 L 559.847656 275.695312 L 562.230469 275.695312 L 562.230469 273.3125 L 564.617188 273.3125 L 564.617188 270.929688 L 567 270.929688 L 567 268.542969 Z M 569.382812 268.542969 " fill-opacity="1" fill-rule="nonzero"/></g><g clip-path="url(#d2391a9a21)"><path fill="#f3aa2c" d="M 557.464844 278.082031 L 555.078125 278.082031 L 555.078125 275.695312 L 552.695312 275.695312 L 552.695312 273.3125 L 550.3125 273.3125 L 550.3125 270.929688 L 552.695312 270.929688 L 552.695312 273.3125 L 555.078125 273.3125 L 555.078125 275.695312 L 557.464844 275.695312 Z M 557.464844 278.082031 " fill-opacity="1" fill-rule="nonzero"/></g><g clip-path="url(#0e475c465e)"><path fill="#f3aa2c" d="M 552.695312 275.695312 L 550.3125 275.695312 L 550.3125 278.082031 L 552.695312 278.082031 Z M 552.695312 275.695312 " fill-opacity="1" fill-rule="nonzero"/></g><g clip-path="url(#7b7316084d)"><path fill="#f3aa2c" d="M 552.695312 280.464844 L 552.695312 282.847656 L 550.3125 282.847656 L 550.3125 280.464844 Z M 552.695312 280.464844 " fill-opacity="1" fill-rule="nonzero"/></g><g clip-path="url(#d9d3efbe4b)"><path fill="#f3aa2c" d="M 564.617188 275.695312 L 567 275.695312 L 567 278.082031 L 569.382812 278.082031 L 569.382812 280.464844 L 571.769531 280.464844 L 571.769531 282.847656 L 569.382812 282.847656 L 569.382812 280.464844 L 567 280.464844 L 567 278.082031 L 564.617188 278.082031 Z M 564.617188 275.695312 " fill-opacity="1" fill-rule="nonzero"/></g><path fill="#f3aa2c" d="M 552.695312 287.617188 L 555.078125 287.617188 L 555.078125 290 L 557.464844 290 L 557.464844 292.382812 L 559.847656 292.382812 L 559.847656 294.769531 L 557.464844 294.769531 L 557.464844 292.382812 L 555.078125 292.382812 L 555.078125 290 L 552.695312 290 Z M 552.695312 287.617188 " fill-opacity="1" fill-rule="nonzero"/><path fill="#f3aa2c" d="M 559.847656 292.382812 L 562.230469 292.382812 L 562.230469 290 L 564.617188 290 L 564.617188 287.617188 L 562.230469 287.617188 L 562.230469 290 L 559.847656 290 Z M 559.847656 292.382812 " fill-opacity="1" fill-rule="nonzero"/><path fill="#5271ff" d="M 557.464844 285.234375 L 557.464844 287.617188 L 559.847656 287.617188 L 559.847656 285.234375 L 562.230469 285.234375 L 562.230469 282.847656 L 564.617188 282.847656 L 564.617188 280.464844 L 562.230469 280.464844 L 562.230469 282.847656 L 559.847656 282.847656 L 559.847656 285.234375 Z M 557.464844 285.234375 " fill-opacity="1" fill-rule="nonzero"/><g clip-path="url(#6d37fc6ece)"><path fill="#5271ff" d="M 564.617188 282.847656 L 567 282.847656 L 567 285.234375 L 569.382812 285.234375 L 569.382812 287.617188 L 571.769531 287.617188 L 571.769531 290 L 569.382812 290 L 569.382812 287.617188 L 567 287.617188 L 567 285.234375 L 564.617188 285.234375 Z M 564.617188 282.847656 " fill-opacity="1" fill-rule="nonzero"/></g><g clip-path="url(#dbaa61ce11)"><path fill="#5271ff" d="M 569.382812 290 L 569.382812 292.382812 L 567 292.382812 L 567 294.769531 L 564.617188 294.769531 L 564.617188 297.152344 L 562.230469 297.152344 L 562.230469 299.535156 L 559.847656 299.535156 L 559.847656 301.921875 L 557.464844 301.921875 L 557.464844 304.304688 L 555.078125 304.304688 L 555.078125 306.6875 L 552.695312 306.6875 L 552.695312 309.074219 L 550.3125 309.074219 L 550.3125 306.6875 L 552.695312 306.6875 L 552.695312 304.304688 L 555.078125 304.304688 L 555.078125 301.921875 L 557.464844 301.921875 L 557.464844 299.535156 L 559.847656 299.535156 L 559.847656 297.152344 L 562.230469 297.152344 L 562.230469 294.769531 L 564.617188 294.769531 L 564.617188 292.382812 L 567 292.382812 L 567 290 Z M 569.382812 290 " fill-opacity="1" fill-rule="nonzero"/></g><g clip-path="url(#c5f735b208)"><path fill="#5271ff" d="M 557.464844 299.535156 L 555.078125 299.535156 L 555.078125 297.152344 L 552.695312 297.152344 L 552.695312 294.769531 L 550.3125 294.769531 L 550.3125 292.382812 L 552.695312 292.382812 L 552.695312 294.769531 L 555.078125 294.769531 L 555.078125 297.152344 L 557.464844 297.152344 Z M 557.464844 299.535156 " fill-opacity="1" fill-rule="nonzero"/></g><g clip-path="url(#b47780c608)"><path fill="#5271ff" d="M 552.695312 297.152344 L 550.3125 297.152344 L 550.3125 299.535156 L 552.695312 299.535156 Z M 552.695312 297.152344 " fill-opacity="1" fill-rule="nonzero"/></g><g clip-path="url(#83ea859452)"><path fill="#5271ff" d="M 552.695312 301.921875 L 552.695312 304.304688 L 550.3125 304.304688 L 550.3125 301.921875 Z M 552.695312 301.921875 " fill-opacity="1" fill-rule="nonzero"/></g><g clip-path="url(#88869c81e0)"><path fill="#5271ff" d="M 564.617188 297.152344 L 567 297.152344 L 567 299.535156 L 569.382812 299.535156 L 569.382812 301.921875 L 571.769531 301.921875 L 571.769531 304.304688 L 569.382812 304.304688 L 569.382812 301.921875 L 567 301.921875 L 567 299.535156 L 564.617188 299.535156 Z M 564.617188 297.152344 " fill-opacity="1" fill-rule="nonzero"/></g><path fill="#5271ff" d="M 552.695312 309.074219 L 555.078125 309.074219 L 555.078125 311.457031 L 557.464844 311.457031 L 557.464844 313.839844 L 559.847656 313.839844 L 559.847656 316.222656 L 557.464844 316.222656 L 557.464844 313.839844 L 555.078125 313.839844 L 555.078125 311.457031 L 552.695312 311.457031 Z M 552.695312 309.074219 " fill-opacity="1" fill-rule="nonzero"/><path fill="#5271ff" d="M 559.847656 313.839844 L 562.230469 313.839844 L 562.230469 311.457031 L 564.617188 311.457031 L 564.617188 309.074219 L 562.230469 309.074219 L 562.230469 311.457031 L 559.847656 311.457031 Z M 559.847656 313.839844 " fill-opacity="1" fill-rule="nonzero"/><path fill="#f3aa2c" d="M 557.464844 306.6875 L 557.464844 309.074219 L 559.847656 309.074219 L 559.847656 306.6875 L 562.230469 306.6875 L 562.230469 304.304688 L 564.617188 304.304688 L 564.617188 301.921875 L 562.230469 301.921875 L 562.230469 304.304688 L 559.847656 304.304688 L 559.847656 306.6875 Z M 557.464844 306.6875 " fill-opacity="1" fill-rule="nonzero"/><g clip-path="url(#aa901a55a3)"><path fill="#f3aa2c" d="M 564.617188 304.304688 L 567 304.304688 L 567 306.6875 L 569.382812 306.6875 L 569.382812 309.074219 L 571.769531 309.074219 L 571.769531 311.457031 L 569.382812 311.457031 L 569.382812 309.074219 L 567 309.074219 L 567 306.6875 L 564.617188 306.6875 Z M 564.617188 304.304688 " fill-opacity="1" fill-rule="nonzero"/></g><g clip-path="url(#14d819b2df)"><path fill="#f3aa2c" d="M 569.382812 311.457031 L 569.382812 313.839844 L 567 313.839844 L 567 316.222656 L 564.617188 316.222656 L 564.617188 318.609375 L 562.230469 318.609375 L 562.230469 320.992188 L 559.847656 320.992188 L 559.847656 323.375 L 557.464844 323.375 L 557.464844 320.992188 L 559.847656 320.992188 L 559.847656 318.609375 L 562.230469 318.609375 L 562.230469 316.222656 L 564.617188 316.222656 L 564.617188 313.839844 L 567 313.839844 L 567 311.457031 Z M 569.382812 311.457031 " fill-opacity="1" fill-rule="nonzero"/></g><g clip-path="url(#640a1d9f58)"><path fill="#f3aa2c" d="M 557.464844 237.554688 L 557.464844 239.9375 L 555.078125 239.9375 L 555.078125 242.320312 L 552.695312 242.320312 L 552.695312 244.703125 L 550.3125 244.703125 L 550.3125 242.320312 L 552.695312 242.320312 L 552.695312 239.9375 L 555.078125 239.9375 L 555.078125 237.554688 L 557.464844 237.554688 C 557.464844 237.554688 556.988281 237.554688 557.464844 237.554688 Z M 557.464844 237.554688 " fill-opacity="1" fill-rule="nonzero"/></g><g clip-path="url(#7f64ebf8cb)"><path fill="#f3aa2c" d="M 557.464844 320.992188 L 555.078125 320.992188 L 555.078125 318.609375 L 552.695312 318.609375 L 552.695312 316.222656 L 550.3125 316.222656 L 550.3125 313.839844 L 552.695312 313.839844 L 552.695312 316.222656 L 555.078125 316.222656 L 555.078125 318.609375 L 557.464844 318.609375 Z M 557.464844 320.992188 " fill-opacity="1" fill-rule="nonzero"/></g><g clip-path="url(#03ae5bb9ca)"><path fill="#f3aa2c" d="M 552.695312 318.609375 L 550.3125 318.609375 L 550.3125 320.992188 L 552.695312 320.992188 Z M 552.695312 318.609375 " fill-opacity="1" fill-rule="nonzero"/></g><g clip-path="url(#7e311c246f)"><path fill="#f3aa2c" d="M 552.695312 237.554688 L 552.695312 239.9375 L 550.3125 239.9375 L 550.3125 237.554688 Z M 552.695312 237.554688 " fill-opacity="1" fill-rule="nonzero"/></g><g clip-path="url(#bfc79159a0)"><path fill="#f3aa2c" d="M 564.617188 318.609375 L 567 318.609375 L 567 320.992188 L 569.382812 320.992188 L 569.382812 323.375 L 567 323.375 L 567 320.992188 L 564.617188 320.992188 Z M 564.617188 318.609375 " fill-opacity="1" fill-rule="nonzero"/></g><path fill="#f3aa2c" d="M 552.695312 244.703125 L 555.078125 244.703125 L 555.078125 247.089844 L 557.464844 247.089844 L 557.464844 249.472656 L 559.847656 249.472656 L 559.847656 251.855469 L 557.464844 251.855469 L 557.464844 249.472656 L 555.078125 249.472656 L 555.078125 247.089844 L 552.695312 247.089844 Z M 552.695312 244.703125 " fill-opacity="1" fill-rule="nonzero"/><path fill="#f3aa2c" d="M 559.847656 249.472656 L 562.230469 249.472656 L 562.230469 247.089844 L 564.617188 247.089844 L 564.617188 244.703125 L 562.230469 244.703125 L 562.230469 247.089844 L 559.847656 247.089844 Z M 559.847656 249.472656 " fill-opacity="1" fill-rule="nonzero"/></svg>